<svg width="20" height="20" viewBox="0 0 20 20" fill="none" xmlns="http://www.w3.org/2000/svg">
<path d="M9.99951 5C9.38145 5 8.77726 5.18328 8.26336 5.52666C7.74945 5.87004 7.34891 6.3581 7.11239 6.92911C6.87587 7.50013 6.81398 8.12847 6.93456 8.73466C7.05514 9.34085 7.35277 9.89767 7.7898 10.3347C8.22684 10.7717 8.78367 11.0694 9.38986 11.19C9.99605 11.3105 10.6244 11.2486 11.1954 11.0121C11.7664 10.7756 12.2545 10.3751 12.5979 9.86116C12.9412 9.34725 13.1245 8.74307 13.1245 8.125C13.1245 7.2962 12.7953 6.50134 12.2092 5.91529C11.6232 5.32924 10.8283 5 9.99951 5Z" fill="#555555"/>
<path d="M9.99952 1.25C8.26893 1.25 6.57721 1.76318 5.13828 2.72464C3.69935 3.6861 2.57784 5.05267 1.91557 6.65152C1.2533 8.25037 1.08002 10.0097 1.41764 11.707C1.75527 13.4044 2.58862 14.9635 3.81233 16.1872C5.03604 17.4109 6.59514 18.2442 8.29248 18.5819C9.98981 18.9195 11.7491 18.7462 13.348 18.0839C14.9468 17.4217 16.3134 16.3002 17.2749 14.8612C18.2363 13.4223 18.7495 11.7306 18.7495 10C18.7469 7.68017 17.8241 5.45611 16.1838 3.81574C14.5434 2.17537 12.3193 1.25265 9.99952 1.25ZM14.9945 15.5788C14.9821 14.759 14.6481 13.9769 14.0645 13.401C13.4809 12.8251 12.6944 12.5015 11.8745 12.5H8.12452C7.30463 12.5015 6.51816 12.8251 5.93457 13.401C5.35098 13.9769 5.01697 14.759 5.00452 15.5788C3.87112 14.5667 3.07185 13.2343 2.71254 11.7579C2.35323 10.2815 2.45083 8.73084 2.99241 7.31116C3.534 5.89148 4.49403 4.66979 5.74537 3.80785C6.99672 2.94592 8.48035 2.48439 9.99983 2.48439C11.5193 2.48439 13.0029 2.94592 14.2543 3.80785C15.5056 4.66979 16.4657 5.89148 17.0072 7.31116C17.5488 8.73084 17.6464 10.2815 17.2871 11.7579C16.9278 13.2343 16.1285 14.5667 14.9951 15.5788H14.9945Z" fill="#555555"/>
</svg>
