<svg width="23" height="18" viewBox="0 0 23 18" fill="none" xmlns="http://www.w3.org/2000/svg">
<g clip-path="url(#clip0_1169_15225)">
<path d="M22.5108 11.2655C22.3171 10.9924 21.9997 10.8368 21.6758 10.7638C21.6695 7.90298 20.625 5.21362 18.7264 3.18469C16.8025 1.13036 14.2467 0 11.5227 0C8.79873 0 6.23982 1.13036 4.31905 3.18151C2.42368 5.21044 1.37599 7.89981 1.36964 10.7575L1.32519 10.767C1.20772 10.7987 0.96326 10.9194 0.96326 10.9194C0.728323 11.0115 0.541008 11.1988 0.407665 11.402C0.204476 11.7322 0.255274 12.1355 0.252099 12.5006C0.258449 12.7578 0.248924 13.0118 0.248924 13.2658V14.9328C0.255274 15.244 0.296546 15.5519 0.464812 15.8218C0.677526 16.1616 1.0966 16.3108 1.49028 16.3076C1.48393 16.333 1.48393 16.3807 1.48393 16.3997C1.47758 16.549 1.54743 16.6887 1.60458 16.8188C1.90618 17.4634 2.57607 17.9397 3.29676 17.9746C3.32851 17.9746 3.36025 17.9746 3.392 17.9746C3.41105 17.9746 3.43328 17.9778 3.45232 17.9778H3.66821C3.82378 17.9778 3.98252 17.9778 4.13809 17.9778C4.16349 17.9778 4.18888 17.9778 4.21428 17.9746C4.68416 17.9587 5.06196 17.5777 5.06196 17.1078V10.0113C5.06196 9.54454 4.67781 9.1667 4.20476 9.1667H3.08087C3.79203 4.84212 7.30656 1.54948 11.5227 1.54948C15.7389 1.54948 19.2503 4.84212 19.9646 9.1667H18.7867C18.3137 9.1667 17.9295 9.54454 17.9295 10.0113V17.111C17.9295 17.1776 17.9391 17.2411 17.9518 17.3046C17.9803 17.6571 18.32 17.9524 18.6661 17.9937C18.9645 18.0032 19.263 18 19.5582 18C20.463 17.9841 21.2663 17.2888 21.4536 16.4251C21.6885 16.4156 21.9298 16.3902 22.133 16.26C22.5076 16.0536 22.7553 15.6409 22.7457 15.2186C22.7457 14.1517 22.7457 13.0817 22.7457 12.0148C22.7489 11.7449 22.6664 11.4814 22.5108 11.2655Z" fill="#2D67AD"/>
<path d="M3.78903 9.19221C4.46527 5.27089 7.66232 2.29259 11.4943 2.29259C15.3264 2.29259 18.5234 5.27089 19.1996 9.19221H20.6632C20.3648 7.15694 19.4727 5.27724 18.0789 3.78809C16.3233 1.91157 13.9866 0.879639 11.4943 0.879639C9.0021 0.879639 6.66543 1.91157 4.90975 3.78809C3.51917 5.27724 2.62705 7.15694 2.32861 9.19221H3.78903Z" fill="#2D67AD"/>
<path d="M10.5895 13.2469C10.5895 11.9514 10.5864 10.6528 10.5927 9.35731C10.5959 8.7318 11.2309 8.33808 11.8468 8.57939C12.2341 8.72863 12.4024 9.00169 12.4024 9.37318C12.3992 10.802 12.4024 12.234 12.4024 13.6628C12.4024 14.8281 12.4055 15.9902 12.3992 17.1555C12.396 17.6508 12.0246 17.9969 11.5039 18.0033C10.9483 18.0096 10.5927 17.7016 10.5927 17.1904C10.5895 15.8759 10.5895 14.5614 10.5895 13.2469Z" fill="#2D67AD"/>
<path d="M6.97021 13.3009C6.97021 12.5135 6.96386 11.7229 6.97339 10.9354C6.97656 10.4814 7.32897 10.1416 7.80519 10.1099C8.38301 10.0718 8.77669 10.4052 8.77986 10.945C8.78304 12.4055 8.77986 13.8661 8.77986 15.3299C8.77986 15.4537 8.78304 15.5807 8.77669 15.7045C8.75129 16.1681 8.35444 16.5047 7.84329 16.4951C7.31944 16.4856 6.97339 16.1776 6.97021 15.695C6.96704 14.8949 6.97021 14.0979 6.97021 13.3009Z" fill="#2D67AD"/>
<path d="M16.0216 13.2977C16.0216 14.0693 16.0248 14.8409 16.0216 15.6156C16.0185 16.1268 15.647 16.4856 15.1263 16.4888C14.6406 16.492 14.2151 16.0887 14.2151 15.6124C14.212 14.0693 14.212 12.523 14.2151 10.9799C14.2151 10.5068 14.6438 10.1035 15.1295 10.1067C15.6502 10.1099 16.0216 10.4719 16.0216 10.9831C16.0216 11.7546 16.0216 12.5262 16.0216 13.2977Z" fill="#2D67AD"/>
</g>
<defs>
<clipPath id="clip0_1169_15225">
<rect width="22.5" height="18" fill="white" transform="translate(0.245972)"/>
</clipPath>
</defs>
</svg>
