<?xml version="1.0" encoding="utf-8"?>
<!-- Generator: Adobe Illustrator 19.2.1, SVG Export Plug-In . SVG Version: 6.00 Build 0)  -->
<svg version="1.1" id="Layer_1" xmlns="http://www.w3.org/2000/svg" xmlns:xlink="http://www.w3.org/1999/xlink" x="0px" y="0px"
	 viewBox="0 0 180 16" style="enable-background:new 0 0 180 16;" xml:space="preserve">
<style type="text/css">
	.st0{fill:url(#SVGID_1_);}
</style>
<g>
	<linearGradient id="SVGID_1_" gradientUnits="userSpaceOnUse" x1="0" y1="8" x2="179.8736" y2="8">
		<stop  offset="0" style="stop-color:#F6BC1A"/>
		<stop  offset="1" style="stop-color:#EA3D28"/>
	</linearGradient>
	<path class="st0" d="M3,13.1V4.6H0V2.9h8.1v1.7h-3v8.4H3z M18.5,13.1h-2.2l-0.9-2.3h-4.1l-0.8,2.3H8.4l4-10.2h2.2L18.5,13.1z
		 M14.8,9l-1.4-3.8L12,9H14.8z M13.5,1.7c0.2-0.1,0.4-0.2,0.4-0.3c0-0.1-0.1-0.2-0.2-0.3c-0.2-0.1-0.5-0.2-0.9-0.2
		c-0.1,0-0.4,0-0.7,0L12,0.3c0.2,0,0.5-0.1,1,0c0.6,0,1,0.1,1.4,0.3C14.8,0.7,15,1,15,1.3c0,0.5-0.4,0.8-1.3,0.9v0.3H13V1.8
		C13.3,1.7,13.4,1.7,13.5,1.7z M19.6,13.1V2.9h2.1v10.2H19.6z M36.1,13.1h-2.2L33,10.7H29l-0.8,2.3H26l4-10.2h2.2L36.1,13.1z
		 M32.4,9L31,5.3L29.6,9H32.4z M37.2,13.1V2.9h3.3c1.2,0,2.1,0.1,2.4,0.2c0.6,0.2,1.1,0.5,1.5,1C44.8,4.6,45,5.2,45,6
		c0,0.6-0.1,1.1-0.3,1.6c-0.2,0.4-0.5,0.8-0.9,1c-0.3,0.2-0.7,0.4-1.1,0.5c-0.5,0.1-1.2,0.1-2.1,0.1h-1.3v3.8H37.2z M39.3,4.6v2.9
		h1.1c0.8,0,1.3-0.1,1.6-0.2c0.3-0.1,0.5-0.3,0.6-0.5c0.2-0.2,0.2-0.5,0.2-0.8c0-0.4-0.1-0.7-0.3-0.9c-0.2-0.2-0.5-0.4-0.8-0.5
		c-0.2,0-0.7-0.1-1.5-0.1H39.3z M46.7,13.1V2.9H50c1.2,0,2.1,0.1,2.4,0.2c0.6,0.2,1.1,0.5,1.5,1c0.4,0.5,0.6,1.2,0.6,2
		c0,0.6-0.1,1.1-0.3,1.6c-0.2,0.4-0.5,0.8-0.9,1c-0.3,0.2-0.7,0.4-1.1,0.5c-0.5,0.1-1.2,0.1-2.1,0.1h-1.3v3.8H46.7z M48.7,4.6v2.9
		h1.1c0.8,0,1.3-0.1,1.6-0.2c0.3-0.1,0.5-0.3,0.6-0.5c0.2-0.2,0.2-0.5,0.2-0.8c0-0.4-0.1-0.7-0.3-0.9c-0.2-0.2-0.5-0.4-0.8-0.5
		c-0.2,0-0.7-0.1-1.5-0.1H48.7z M62.4,13.1L58.8,2.9H61l2.6,7.5l2.5-7.5h2.2l-3.6,10.2H62.4z M69.2,13.1V2.9h2.1v10.2H69.2z
		 M73.2,13.1V2.9h7.5v1.7h-5.5v2.3h5.1v1.7h-5.1v2.8h5.7v1.7H73.2z M85,13.1V4.6h-3V2.9H90v1.7h-3v8.4H85z M91.4,13.1V2.9h2l4.2,6.8
		V2.9h1.9v10.2h-2.1l-4.1-6.6v6.6H91.4z M110.7,13.1h-2.2l-0.9-2.3h-4.1l-0.8,2.3h-2.2l4-10.2h2.2L110.7,13.1z M107,9l-1.4-3.8
		L104.2,9H107z M111.8,13.1V2.9h3.1l1.8,6.9l1.8-6.9h3.1v10.2h-1.9v-8l-2,8h-2l-2-8v8H111.8z M123.7,13.1V2.9h2l4.2,6.8V2.9h1.9
		v10.2h-2.1l-4.1-6.6v6.6H123.7z M133.9,13.1V2.9h7.5v1.7h-5.5v2.3h5.1v1.7h-5.1v2.8h5.7v1.7H133.9z M145.6,13.1V4.6h-3V2.9h8.1v1.7
		h-3v8.4H145.6z M176.9,6.3c-0.5-0.2-0.6-0.4-0.7-0.9c-0.7-3.5-3.8-5.8-7.3-5.3c-2.6,0.4-4.4,1.9-5.3,4.4c-0.1,0.2-0.1,0.2-0.3,0.3
		c-2.5,1-4,3.6-3.6,6.3c0.4,2.8,2.9,5,5.7,5c1.6,0,3.1,0,4.7,0c1.5,0,3.1,0,4.6,0c0.3,0,0.5,0,0.8,0c2.3-0.3,4.3-2.3,4.4-4.7
		C180,9.1,178.8,7.1,176.9,6.3z M173.1,10c-1,1-1.9,2-2.9,2.9c-0.3,0.3-0.7,0.3-1,0c-1-1-1.9-1.9-2.9-2.9c-0.2-0.2-0.3-0.5-0.2-0.8
		c0.1-0.3,0.4-0.4,0.7-0.4c0.5,0,0.9,0,1.4,0c0-0.8,0-1.5,0-2.3c0-0.3,0-0.6,0-0.8c0.1-0.8,0.8-1.3,1.5-1.2c0.8,0.1,1.4,0.7,1.4,1.5
		c0,0.9,0,1.8,0,2.7v0.2c0.5,0,0.9,0,1.4,0c0.4,0,0.7,0.2,0.8,0.6C173.4,9.6,173.3,9.8,173.1,10z"/>
</g>
</svg>
